<svg width="50" height="67" viewBox="0 0 50 67" fill="none" xmlns="http://www.w3.org/2000/svg">
<path d="M17.0276 57.6528H33.2338M16.9103 61.4043H33.1182M20.7217 65.1558H29.5397M48.6307 22.8657C48.6357 19.1314 47.5953 15.4592 45.6105 12.2048C43.6256 8.95041 40.7634 6.22418 37.3012 4.2902C33.8391 2.35621 29.8943 1.28003 25.849 1.16589C21.8037 1.05176 17.795 1.90355 14.2112 3.63874C10.6275 5.37393 7.59014 7.93371 5.39346 11.0701C3.19678 14.2065 1.91521 17.8132 1.6729 21.5409C1.43059 25.2685 2.23575 28.9907 4.01039 32.3469C5.78502 35.703 8.46898 38.5794 11.8023 40.6974C12.7353 41.3162 13.492 42.1342 14.0077 43.0816C14.5234 44.029 14.7828 45.0775 14.7635 46.1375V53.9014H35.4979V46.131C35.4875 45.0606 35.7575 44.0037 36.2848 43.0503C36.8122 42.0969 37.5813 41.275 38.5268 40.6548C41.6455 38.6655 44.1943 36.0075 45.9542 32.9089C47.7141 29.8104 48.6326 26.364 48.6307 22.8657Z" stroke="black" stroke-width="2" stroke-linecap="round" stroke-linejoin="round"/>
<path d="M28.7104 53.9042V42.32L31.6433 36.5796M21.5571 53.9042V42.32L18.6243 36.5796" stroke="black" stroke-width="2" stroke-linecap="round" stroke-linejoin="round"/>
</svg>
