<svg width="67" height="67" viewBox="0 0 67 67" fill="none" xmlns="http://www.w3.org/2000/svg">
<g id="Group 40492">
<path id="Ellipse 97" d="M53.5095 33.5474C53.5095 44.9424 44.3938 54.1578 33.1761 54.1578C21.9585 54.1578 12.8428 44.9424 12.8428 33.5474C12.8428 22.1524 21.9585 12.937 33.1761 12.937C44.3938 12.937 53.5095 22.1524 53.5095 33.5474Z" stroke="white" stroke-width="2"/>
<path id="Vector 211" d="M8.55034 15.3482L10.4951 18.5495C10.8265 19.095 10.8776 19.766 10.6326 20.3555L8.25262 26.0813C7.94249 26.8274 7.21384 27.3137 6.40581 27.3137H3.17628C2.07172 27.3137 1.17628 28.2091 1.17628 29.3137V36.7717C1.17628 37.7791 1.9256 38.6293 2.92504 38.7559L6.58991 39.2199C7.30142 39.31 7.91022 39.7742 8.18549 40.4364L10.5948 46.2328C10.8606 46.8724 10.7766 47.6041 10.3726 48.1668L8.69629 50.5017C8.14043 51.2759 8.20815 52.3348 8.8581 53.032L13.6185 58.1378C14.2587 58.8245 15.2905 58.9735 16.0988 58.4958L18.8157 56.8904C19.3357 56.5831 19.9666 56.5273 20.5325 56.7384L26.3178 58.8976C27.0048 59.154 27.4965 59.7659 27.5989 60.492L28.0105 63.4111C28.1497 64.398 28.9943 65.1318 29.9909 65.1318H36.8884C37.8335 65.1318 38.6496 64.4703 38.8451 63.5458L39.5177 60.3662C39.6567 59.709 40.1164 59.1655 40.7414 58.9193L46.2551 56.7473C46.8064 56.5301 47.4256 56.5685 47.9458 56.8523L51.2149 58.6354C51.9599 59.0418 52.8803 58.9337 53.5109 58.3659L58.543 53.8348C59.2874 53.1646 59.4211 52.047 58.8559 51.2201L56.7298 48.1092C56.3662 47.5772 56.2812 46.9026 56.5015 46.2971L58.6091 40.5021C58.8632 39.8034 59.4841 39.3033 60.2209 39.2037L63.444 38.7684C64.4361 38.6344 65.1763 37.7875 65.1763 36.7864V29.8573C65.1763 28.8716 64.4582 28.0329 63.4843 27.8811L60.8955 27.4777C60.2375 27.3751 59.6738 26.9519 59.3917 26.3487L56.634 20.4512C56.3344 19.8106 56.3954 19.0594 56.7945 18.4755L58.8856 15.4157C59.4379 14.6077 59.3242 13.5187 58.617 12.8421L53.5807 8.02384C52.9204 7.39204 51.9157 7.28828 51.1401 7.77175L48.0308 9.71004C47.4647 10.0629 46.76 10.1104 46.1517 9.83651L40.666 7.36672C40.0842 7.10482 39.6623 6.5811 39.5303 5.95695L38.8451 2.71792C38.6496 1.79333 37.8335 1.13184 36.8884 1.13184H29.9909C28.9943 1.13184 28.1497 1.86565 28.0105 2.85255L27.5903 5.83244C27.4925 6.52608 27.0389 7.11798 26.3945 7.39281L20.6394 9.8475C20.015 10.1138 19.298 10.0452 18.7354 9.66529L16.0908 7.87932C15.293 7.34053 14.2245 7.44659 13.5482 8.13171L8.83634 12.9048C8.19211 13.5574 8.07423 14.5645 8.55034 15.3482Z" stroke="white" stroke-width="2"/>
</g>
</svg>
