<svg width="41" height="40" viewBox="0 0 41 40" fill="none" xmlns="http://www.w3.org/2000/svg">
<rect x="0.299805" width="40" height="40" rx="1" fill="white"/>
<path fill-rule="evenodd" clip-rule="evenodd" d="M28.9398 20.2046C28.9398 19.5664 28.8825 18.9527 28.7762 18.3636H20.2998V21.845H25.1434C24.9348 22.97 24.3007 23.9232 23.3475 24.5614V26.8196H26.2562C27.958 25.2527 28.9398 22.9455 28.9398 20.2046Z" fill="#4285F4"/>
<path fill-rule="evenodd" clip-rule="evenodd" d="M20.2996 29C22.7296 29 24.7668 28.1941 26.2559 26.8195L23.3473 24.5614C22.5414 25.1014 21.5105 25.4204 20.2996 25.4204C17.9555 25.4204 15.9714 23.8373 15.2637 21.71H12.2568V24.0418C13.7377 26.9832 16.7814 29 20.2996 29Z" fill="#34A853"/>
<path fill-rule="evenodd" clip-rule="evenodd" d="M15.2639 21.71C15.0839 21.17 14.9816 20.5932 14.9816 20C14.9816 19.4068 15.0839 18.83 15.2639 18.29V15.9582H12.2571C11.6475 17.1732 11.2998 18.5477 11.2998 20C11.2998 21.4523 11.6475 22.8268 12.2571 24.0418L15.2639 21.71Z" fill="#FBBC05"/>
<path fill-rule="evenodd" clip-rule="evenodd" d="M20.2996 14.5795C21.6209 14.5795 22.8073 15.0336 23.74 15.9255L26.3214 13.3441C24.7627 11.8918 22.7255 11 20.2996 11C16.7814 11 13.7377 13.0168 12.2568 15.9582L15.2637 18.29C15.9714 16.1627 17.9555 14.5795 20.2996 14.5795Z" fill="#EA4335"/>
</svg>
