<svg width="135" height="72" viewBox="0 0 135 72" fill="none" xmlns="http://www.w3.org/2000/svg">
<path d="M0.0391846 35.828H41.549M41.549 35.828L20.5098 15.3574M41.549 35.828L20.5098 56.2986" stroke="white" stroke-width="2.27451"/>
<path d="M81.5745 43.8459V18.6957M81.5745 18.6957H79.6754V11.1032H92.0195M81.5745 18.6957H92.0195M121.456 18.6957H123.355V11.1032H111.01M121.456 18.6957V38.7236M121.456 18.6957H111.01M96.7673 18.6957V42.8968M96.7673 18.6957H106.263M96.7673 18.6957H92.0195M106.263 18.6957V43.8459M106.263 18.6957H111.01M92.0195 11.1032V18.6957M92.0195 11.1032H98.6664M111.01 11.1032V18.6957M111.01 11.1032L104.838 11.1031M101.515 11.1032C103.414 6.83241 108.447 -0.854998 113.384 2.56163C116.423 4.83927 108.953 9.20493 104.838 11.1031M101.515 11.1032L104.838 11.1031M101.515 11.1032C99.2994 6.83245 93.7287 -0.854887 89.1709 2.56163C84.6131 5.97814 93.6021 9.67955 98.6664 11.1032M101.515 11.1032H98.6664" stroke="white" stroke-width="2.27451"/>
<path d="M95.342 53.3364L96.5223 52.2748C98.819 50.209 101.799 49.066 104.888 49.066H109.926C111.265 49.066 112.642 48.839 113.719 48.0428C115.493 46.7302 115.573 45.4173 115.034 44.493C114.008 42.7336 111.394 43.5582 109.372 43.8041C106.233 44.1859 101.925 44.4107 95.342 43.3717C86.1446 41.92 79.8327 44.7953 77.7754 46.6934L65.4313 59.5057L74.9267 69.9455L83.4416 63.4775C85.6179 61.8244 88.2757 60.9294 91.0086 60.9294H104.895C108.223 60.9294 111.45 59.7263 113.898 57.4717C122.296 49.7375 126.464 44.6469 132.892 36.669C135.223 33.8806 131.9 30.0844 128.144 32.3988L115.757 44.3207" stroke="white" stroke-width="2.27451" stroke-linecap="round" stroke-linejoin="round"/>
</svg>
