<svg width="378" height="108" viewBox="0 0 378 108" fill="none" xmlns="http://www.w3.org/2000/svg">
<circle cx="19" cy="89" r="9.625" stroke="#FF550C" stroke-width="0.75"/>
<circle cx="18.72" cy="88.72" r="18.22" stroke="#FF550C" stroke-dasharray="2 2"/>
<circle cx="19" cy="89" r="3" fill="#FF550C"/>
<path d="M19 88.5H89L119.5 38" stroke="#FF550C"/>
<path d="M119 0H378V23L362.69 38H119V0Z" fill="#FF550C"/>
<path d="M136.682 23.6595H135.36V21.0352H137.154V23.2064H142.062V19.015H137.361L136.682 18.3542V17.6934H136.021L135.36 17.0138V13.7853L136.021 13.1245H136.682V12.4448L137.361 11.784H141.836L142.516 12.4448V13.1245H143.856V15.7488H142.062V13.5776H137.154V17.2214H141.836L142.516 17.9011V18.5619H143.176L143.856 19.2416V22.9987L143.176 23.6595H142.516V24.3203L141.836 25H137.361L136.682 24.3203V23.6595ZM148.58 22.9987V13.7853L149.24 13.1245H149.901V12.4448L150.581 11.784H155.056L155.735 12.4448V13.1245H156.396L157.076 13.7853V22.9987L156.396 23.6595H155.735V24.3203L155.056 25H150.581L149.901 24.3203V23.6595H149.24L148.58 22.9987ZM150.373 23.2064H155.282V13.5776H150.373V23.2064ZM161.327 11.784H163.857L165.594 13.521V14.1818H166.482V13.521L168.219 11.784H170.767V25H168.974V13.5776L167.898 14.6538H166.935V19.015H165.141V14.6538H164.197L163.121 13.5776V25H161.327V11.784ZM175.019 25V11.784H183.515V13.5776H176.813V17.2214H182.609V19.015H176.813V23.2064H183.515V25H175.019ZM201.458 13.5776V11.784H209.954V13.5776H206.594V25H204.8V13.5776H201.458ZM214.678 25V11.784H223.174V13.5776H216.472V17.2214H222.268V19.015H216.472V23.2064H223.174V25H214.678ZM227.898 25V21.2429L230.579 18.5619H231.24V17.6934H230.579L227.898 14.9936V11.784H229.691V14.2573L231.693 16.2774V17.2214H232.58V16.2774L234.6 14.2573V11.784H236.394V14.9936L233.694 17.6934H233.033V18.5619H233.694L236.394 21.2429V25H234.6V21.9981L232.58 19.9779V19.015H231.693V19.9779L229.691 21.9981V25H227.898ZM241.117 13.5776V11.784H249.613V13.5776H246.253V25H244.459V13.5776H241.117ZM269.35 25H267.557V11.784H269.35V17.2214H274.259V11.784H276.053V25H274.259V19.015H269.35V25ZM280.777 25V11.784H289.273V13.5776H282.57V17.2214H288.366V19.015H282.57V23.2064H289.273V25H280.777ZM293.996 25V11.784H300.472L301.152 12.4448V13.1245H301.813L302.492 13.7853V17.0138L301.813 17.6934H301.152V18.5619H301.813L302.492 19.2416V25H300.699V19.015H295.79V25H293.996ZM300.699 13.5776H295.79V17.2214H300.699V13.5776ZM307.216 25V11.784H315.712V13.5776H309.01V17.2214H314.806V19.015H309.01V23.2064H315.712V25H307.216ZM333.655 22.9987V13.7853L334.316 13.1245H334.977V12.4448L335.657 11.784H340.131L340.811 12.4448V13.1245H341.472L342.151 13.7853V22.9987L341.472 23.6595H340.811V24.3203L340.131 25H335.657L334.977 24.3203V23.6595H334.316L333.655 22.9987ZM335.449 23.2064H340.358V13.5776H335.449V23.2064ZM346.875 25V11.784H348.669V17.2214H350.632V16.2774L353.577 13.351V11.784H355.371V14.0874L351.765 17.6934H351.104V18.5619H351.765L355.371 22.168V25H353.577V22.9043L350.632 19.9779V19.015H348.669V25H346.875Z" fill="white"/>
</svg>
